Coordinates
version=1
nRows=13
nColumns=40
inDegrees=yes

Units are S.I. units (second, meters, Newtons, ...)
If the header above contains a line with 'inDegrees', this indicates whether rotational values are in degrees (yes) or radians (no).

endheader
time	pelvis_tilt	pelvis_list	pelvis_rotation	pelvis_tx	pelvis_ty	pelvis_tz	hip_flexion_r	hip_adduction_r	hip_rotation_r	knee_angle_r	knee_angle_r_beta	ankle_angle_r	subtalar_angle_r	mtp_angle_r	hip_flexion_l	hip_adduction_l	hip_rotation_l	knee_angle_l	knee_angle_l_beta	ankle_angle_l	subtalar_angle_l	mtp_angle_l	lumbar_extension	lumbar_bending	lumbar_rotation	arm_flex_r	arm_add_r	arm_rot_r	elbow_flex_r	pro_sup_r	wrist_flex_r	wrist_dev_r	arm_flex_l	arm_add_l	arm_rot_l	elbow_flex_l	pro_sup_l	wrist_flex_l	wrist_dev_l
      1.95000000	     -4.45231375	    -10.02346548	     88.81463208	      0.12782931	      0.92429088	     -1.03266193	     33.95712612	     -4.95715620	      1.05590767	     56.97471044	      0.99439629	      3.46493161	      0.00000000	      0.00000000	     11.78579833	      9.25571685	      7.47914226	      3.83751615	      0.06697729	      1.45097169	      0.00000000	      0.00000000	      6.20258974	     -4.70765530	     -1.75917639	      0.00000000	      0.00000000	      0.00000000	      0.00000000	      0.00000000	      0.00000000	      0.00000000	      0.00000000	      0.00000000	      0.00000000	      0.00000000	      0.00000000	      0.00000000	      0.00000000
      1.96000000	     -4.30471145	     -9.81538819	     89.04036091	      0.12761033	      0.92462728	     -1.04470022	     34.61533305	     -4.96725701	      0.75044236	     54.55787182	      0.95221450	      4.13870404	      0.00000000	      0.00000000	     10.26529548	      9.14848475	      8.29261303	      3.04790622	      0.05319600	      1.88198434	      0.00000000	      0.00000000	      5.89553629	     -4.53362906	     -1.99146070	      0.00000000	      0.00000000	      0.00000000	      0.00000000	      0.00000000	      0.00000000	      0.00000000	      0.00000000	      0.00000000	      0.00000000	      0.00000000	      0.00000000	      0.00000000	      0.00000000
      1.97000000	     -4.21338992	     -9.62426119	     89.20762418	      0.12751466	      0.92461193	     -1.05674116	     35.20024108	     -5.00341153	      0.43987814	     51.91915150	      0.90616014	      4.63030441	      0.00000000	      0.00000000	      8.80567854	      9.07050137	      8.92316888	      2.31666250	      0.04043339	      2.31001697	      0.00000000	      0.00000000	      5.60855355	     -4.42875395	     -2.20216559	      0.00000000	      0.00000000	      0.00000000	      0.00000000	      0.00000000	      0.00000000	      0.00000000	      0.00000000	      0.00000000	      0.00000000	      0.00000000	      0.00000000	      0.00000000	      0.00000000
      1.98000000	     -4.13965037	     -9.58567495	     89.33767420	      0.12750268	      0.92408211	     -1.06869402	     35.85425661	     -5.02241421	      0.11191175	     49.06035287	      0.85626469	      5.05273171	      0.00000000	      0.00000000	      7.60187390	      8.99457591	      9.46664757	      1.74940185	      0.03053282	      2.84265461	      0.00000000	      0.00000000	      5.49887012	     -4.33168530	     -2.31497477	      0.00000000	      0.00000000	      0.00000000	      0.00000000	      0.00000000	      0.00000000	      0.00000000	      0.00000000	      0.00000000	      0.00000000	      0.00000000	      0.00000000	      0.00000000	      0.00000000
      1.99000000	     -4.13397348	     -9.35731659	     89.44048783	      0.12757670	      0.92350427	     -1.08090855	     36.18879789	     -5.12614257	     -0.31985435	     46.00776767	      0.80298703	      5.29491497	      0.00000000	      0.00000000	      6.12858808	      8.96974861	     10.07255193	      1.09147751	      0.01904988	      3.37071974	      0.00000000	      0.00000000	      5.20405907	     -4.32702398	     -2.41652562	      0.00000000	      0.00000000	      0.00000000	      0.00000000	      0.00000000	      0.00000000	      0.00000000	      0.00000000	      0.00000000	      0.00000000	      0.00000000	      0.00000000	      0.00000000	      0.00000000
      2.00000000	     -4.15134067	     -9.30352815	     89.51847944	      0.12775352	      0.92238418	     -1.09303611	     36.62975150	     -5.21882033	     -0.80447495	     42.77931831	      0.74663996	      5.46331599	     -0.00000000	      0.00000000	      4.92858190	      8.95811621	     10.48818247	      0.57134816	      0.00997191	      3.92278630	      0.00000000	      0.00000000	      5.09993484	     -4.35176063	     -2.52941228	     -0.00000000	      0.00000000	      0.00000000	      0.00000000	      0.00000000	     -0.00000000	      0.00000000	      0.00000000	     -0.00000000	      0.00000000	      0.00000000	      0.00000000	     -0.00000000	      0.00000000
      2.01000000	     -4.23892770	     -8.95023818	     89.56737130	      0.12802661	      0.92142702	     -1.10550312	     36.61606110	     -5.36996500	     -1.38177610	     39.35161843	      0.68681531	      5.41274418	      0.00000000	      0.00000000	      3.30136738	      9.00045429	     11.07121539	     -0.08821637	     -0.00153967	      4.47679524	      0.00000000	      0.00000000	      4.68967725	     -4.48280597	     -2.50531957	      0.00000000	      0.00000000	      0.00000000	      0.00000000	      0.00000000	      0.00000000	      0.00000000	      0.00000000	      0.00000000	      0.00000000	      0.00000000	      0.00000000	      0.00000000	      0.00000000
      2.02000000	     -4.32704919	     -8.64549795	     89.59764385	      0.12835746	      0.92012818	     -1.11795689	     36.56854055	     -5.48756010	     -2.03294841	     35.77147461	      0.62433001	      5.29654416	      0.00000000	      0.00000000	      1.76044890	      9.03688734	     11.59208819	     -0.69726723	     -0.01216961	      4.97110261	      0.00000000	      0.00000000	      4.30399082	     -4.57957323	     -2.52173203	      0.00000000	      0.00000000	      0.00000000	      0.00000000	      0.00000000	      0.00000000	      0.00000000	      0.00000000	      0.00000000	      0.00000000	      0.00000000	      0.00000000	      0.00000000	      0.00000000
      2.03000000	     -4.42685275	     -8.62545190	     89.62038537	      0.12882089	      0.91820131	     -1.13030712	     36.75656361	     -5.55414009	     -2.69236088	     32.07158144	      0.55975469	      5.07815847	      0.00000000	     -0.00000000	      0.64281038	      9.08535941	     11.91507575	     -1.08939439	     -0.01901352	      5.65231907	      0.00000000	      0.00000000	      4.27955874	     -4.71832714	     -2.52812806	     -0.00000000	     -0.00000000	     -0.00000000	      0.00000000	      0.00000000	     -0.00000000	      0.00000000	     -0.00000000	      0.00000000	      0.00000000	      0.00000000	      0.00000000	      0.00000000	     -0.00000000
      2.04000000	     -4.53266511	     -8.31716455	     89.62932073	      0.12936443	      0.91649379	     -1.14291980	     36.51481348	     -5.58047043	     -3.36414534	     28.24154563	      0.49290796	      4.66557567	      0.00000000	      0.00000000	     -0.87243473	      9.12495972	     12.36380237	     -1.60919058	     -0.02808567	      6.25562377	      0.00000000	      0.00000000	      3.91827243	     -4.86161120	     -2.48288654	      0.00000000	      0.00000000	      0.00000000	      0.00000000	      0.00000000	      0.00000000	      0.00000000	      0.00000000	      0.00000000	      0.00000000	      0.00000000	      0.00000000	      0.00000000	      0.00000000
      2.05000000	     -4.64910252	     -8.11280523	     89.62838438	      0.13005144	      0.91446147	     -1.15554011	     36.30025342	     -5.53225099	     -3.88891094	     24.33752802	      0.42477000	      4.27547381	      0.00000000	      0.00000000	     -2.22990195	      9.16896400	     12.73494337	     -2.04013474	     -0.03560707	      6.81708783	      0.00000000	      0.00000000	      3.66826395	     -5.04452974	     -2.43954828	      0.00000000	      0.00000000	      0.00000000	      0.00000000	      0.00000000	      0.00000000	      0.00000000	      0.00000000	      0.00000000	      0.00000000	      0.00000000	      0.00000000	      0.00000000	      0.00000000
      2.06000000	     -4.75979039	     -8.11263139	     89.62955366	      0.13084459	      0.91198326	     -1.16811859	     36.25048401	     -5.39881643	     -4.15284112	     20.46457084	      0.35717414	      3.87014648	      0.00000000	      0.00000000	     -3.30210580	      9.20619747	     12.96456214	     -2.35218590	     -0.04105339	      7.48282028	      0.00000000	     -0.00000000	      3.67286147	     -5.22685432	     -2.42389150	      0.00000000	     -0.00000000	     -0.00000000	      0.00000000	      0.00000000	     -0.00000000	     -0.00000000	     -0.00000000	     -0.00000000	      0.00000000	      0.00000000	      0.00000000	     -0.00000000	     -0.00000000
      2.07000000	     -4.87244320	     -7.87487248	     89.62162591	      0.13169884	      0.90973410	     -1.18092882	     35.84897158	     -5.22879104	     -4.20272047	     16.62390858	      0.29014194	      3.42636878	      0.00000000	      0.00000000	     -4.65974302	      9.23561588	     13.26504665	     -2.68730084	     -0.04690225	      8.03058391	      0.00000000	      0.00000000	      3.39990845	     -5.41681528	     -2.31674163	      0.00000000	      0.00000000	      0.00000000	      0.00000000	      0.00000000	      0.00000000	      0.00000000	      0.00000000	      0.00000000	      0.00000000	      0.00000000	      0.00000000	      0.00000000	      0.00000000
